<svg width="20" height="20" viewBox="0 0 20 20" fill="none" xmlns="http://www.w3.org/2000/svg">
<path opacity="0.7" d="M19.357 9.71022C18.5091 8.00843 17.208 6.57501 15.5978 5.56858C13.9876 4.56216 12.131 4.02197 10.2335 4.00781C8.33621 4.02238 6.47992 4.56275 4.86993 5.56914C3.25994 6.57553 1.95898 8.00872 1.11095 9.71022C1.03768 9.85562 0.999512 10.0163 0.999512 10.1792C0.999512 10.3421 1.03768 10.5027 1.11095 10.6481C1.9588 12.3497 3.25972 13.7831 4.86975 14.7895C6.47978 15.7959 8.33616 16.3362 10.2335 16.3505C12.1308 16.3359 13.987 15.7956 15.597 14.7892C17.207 13.7828 18.508 12.3496 19.356 10.6481C19.4294 10.5028 19.4678 10.3422 19.468 10.1793C19.4681 10.0164 19.4301 9.8557 19.357 9.71022ZM10.2335 14.8084C9.32018 14.8084 8.42739 14.5369 7.668 14.0282C6.90862 13.5196 6.31675 12.7966 5.96725 11.9507C5.61774 11.1048 5.5263 10.174 5.70447 9.27603C5.88265 8.37804 6.32245 7.55319 6.96825 6.90578C7.61405 6.25836 8.43685 5.81747 9.33261 5.63885C10.2284 5.46023 11.1568 5.5519 12.0006 5.90228C12.8444 6.25266 13.5656 6.846 14.073 7.60728C14.5804 8.36855 14.8512 9.26357 14.8512 10.1792C14.8512 10.7871 14.7318 11.389 14.4997 11.9507C14.2677 12.5123 13.9275 13.0227 13.4987 13.4525C13.0699 13.8824 12.5609 14.2234 12.0006 14.456C11.4404 14.6887 10.8399 14.8084 10.2335 14.8084ZM10.2335 7.09298C9.9587 7.09696 9.6857 7.13808 9.42188 7.21523C9.63919 7.51149 9.74342 7.876 9.71569 8.24268C9.68795 8.60936 9.53009 8.95395 9.27071 9.21398C9.01133 9.474 8.6676 9.63226 8.30183 9.66007C7.93606 9.68787 7.57246 9.58338 7.27693 9.36553C7.1084 9.98714 7.13858 10.6461 7.36321 11.2496C7.58784 11.8531 7.99562 12.3708 8.52914 12.7298C9.06266 13.0888 9.69505 13.271 10.3373 13.2508C10.9795 13.2306 11.5993 13.0089 12.1093 12.6171C12.6193 12.2253 12.9939 11.6829 13.1803 11.0665C13.3667 10.45 13.3556 9.79049 13.1485 9.18071C12.9414 8.57092 12.5487 8.04161 12.0258 7.66727C11.5029 7.29293 10.876 7.09143 10.2335 7.09298Z" fill="#8E8E8E"/>
</svg>
