<svg width="20" height="17" viewBox="0 0 20 17" fill="none" xmlns="http://www.w3.org/2000/svg">
<path d="M17.3667 1.84172C16.941 1.41589 16.4357 1.0781 15.8795 0.847626C15.3232 0.617158 14.7271 0.498535 14.125 0.498535C13.5229 0.498535 12.9268 0.617158 12.3705 0.847626C11.8143 1.0781 11.309 1.41589 10.8833 1.84172L10 2.72506L9.11666 1.84172C8.25692 0.98198 7.09086 0.498981 5.875 0.498981C4.65914 0.498981 3.49307 0.98198 2.63333 1.84172C1.77359 2.70147 1.29059 3.86753 1.29059 5.08339C1.29059 6.29925 1.77359 7.46531 2.63333 8.32506L3.51666 9.20839L10 15.6917L16.4833 9.20839L17.3667 8.32506C17.7925 7.89943 18.1303 7.39407 18.3608 6.83785C18.5912 6.28164 18.7099 5.68546 18.7099 5.08339C18.7099 4.48132 18.5912 3.88514 18.3608 3.32893C18.1303 2.77271 17.7925 2.26735 17.3667 1.84172V1.84172Z" stroke="#212058" stroke-linecap="round" stroke-linejoin="round"/>
</svg>
