<svg width="128" height="104" viewBox="0 0 128 104" fill="none" xmlns="http://www.w3.org/2000/svg">
<rect x="3.00003" y="97" width="65" height="4" rx="1" fill="url(#paint0_linear_3201_6544)"/>
<rect y="100" width="72" height="4" rx="1" fill="url(#paint1_linear_3201_6544)"/>
<path d="M4.02489 9.01268C3.98162 7.90896 4.88112 7 5.98569 7H65.296C66.4006 7 67.3001 7.90896 67.2568 9.01268C66.4336 30.0136 52.8287 42.159 43.9198 47.8955C41.521 49.44 41.6801 54.2049 44.1455 55.6409C53.0779 60.8436 66.5044 72.3843 67.2625 94.9827C67.2995 96.0866 66.4006 97.0001 65.296 97.0001H5.98569C4.88112 97.0001 3.98223 96.0866 4.01926 94.9827C4.7773 72.3843 18.2038 60.8436 27.1362 55.6409C29.6016 54.2049 29.7607 49.44 27.3619 47.8955C18.453 42.159 4.84815 30.0136 4.02489 9.01268Z" fill="url(#paint2_radial_3201_6544)"/>
<path d="M5.98569 7.2998H65.2962C66.2356 7.29992 66.9938 8.07264 66.9574 9.00098C66.1396 29.8607 52.6288 41.9311 43.7572 47.6436C42.4369 48.4939 41.8586 50.195 41.9085 51.8184C41.9585 53.4421 42.6404 55.1117 43.9945 55.9004C52.8735 61.0721 66.2089 72.5335 66.9622 94.9932C66.9933 95.9242 66.2341 96.7001 65.2962 96.7002H5.98569C5.04774 96.7002 4.2877 95.9243 4.3187 94.9932C5.07208 72.5335 18.4084 61.072 27.2874 55.9004C28.6415 55.1117 29.3234 53.4421 29.3734 51.8184C29.4233 50.195 28.8449 48.4939 27.5247 47.6436C18.6531 41.9311 5.1423 29.8607 4.32455 9.00098C4.28816 8.07258 5.04621 7.2998 5.98569 7.2998Z" stroke="white" stroke-opacity="0.3" stroke-width="0.6"/>
<path d="M59.6872 96.069H11.946C9.98471 96.069 8.95041 93.2229 10.2792 91.7803C17.8766 83.532 24.695 70.8877 35.02 75.2759C45.3038 79.6465 52.8189 86.147 60.9175 92.3071C62.4755 93.4922 61.6447 96.069 59.6872 96.069Z" fill="url(#paint3_linear_3201_6544)"/>
<path opacity="0.2" d="M15.4118 96H6C6 96 7.26181 81.3847 11.8824 73.3974C17.9289 62.945 36 53 36 53C36 53 21.5905 65.5027 17.7647 76.1538C15.1101 83.5444 15.4118 96 15.4118 96Z" fill="white"/>
<g filter="url(#filter0_f_3201_6544)">
<path d="M13.0637 96H9.99988C9.99988 96 11.0952 81.7246 15.1063 73.9231C20.3552 63.7137 33.9999 54 33.9999 54C33.9999 54 18.4273 66.2119 15.1063 76.6154C12.8018 83.8341 13.0637 96 13.0637 96Z" fill="white"/>
</g>
<path d="M63.2616 18.4827C59.2271 17.5516 7.70987 19.7241 9.57194 23.7585C11.434 27.793 21.0547 48.2758 36.2616 47.9654C51.4685 47.6551 67.2961 19.4137 63.2616 18.4827Z" fill="url(#paint4_linear_3201_6544)"/>
<path d="M31.2961 74.3449C31.2961 74.3449 35.6409 74.9656 35.0203 70.0001C34.4696 65.5947 35.9513 49.8277 34.9992 48.8967C34.0472 47.9656 32.8478 47.6553 32.8478 47.6553H38.7444C38.7444 47.6553 36.0039 47.9656 35.6672 48.8967C35.3306 49.8277 36.572 65.4815 36.572 70.3104C36.572 75.276 40.9168 78.3794 40.9168 78.3794C40.9168 78.3794 34.0892 75.3794 31.2961 74.3449Z" fill="#C19552"/>
<path opacity="0.1" d="M55.5883 96H65C65 96 63.7382 81.3847 59.1177 73.3974C53.0711 62.945 35 53 35 53C35 53 49.4096 65.5027 53.2353 76.1538C55.8899 83.5444 55.5883 96 55.5883 96Z" fill="black"/>
<path opacity="0.2" d="M24.0001 95.626L22.0001 95.626C22.0001 95.626 20.2891 84.7503 21.5109 77.9836C23.5645 66.6092 36.4044 53.0001 36.4044 53.0001C36.4044 53.0001 25.6899 68.4124 24.0001 80.0467C23.127 86.058 24.0001 95.626 24.0001 95.626Z" fill="white"/>
<ellipse cx="37.0001" cy="21" rx="27" ry="3" transform="rotate(-4.72872 37.0001 21)" fill="#D3AA6B"/>
<path opacity="0.2" d="M14.4118 8H5.00006C5.00006 8 6.26187 21.5956 10.8824 29.0256C16.929 38.7488 35.0001 48 35.0001 48C35.0001 48 20.5905 36.3696 16.7648 26.4615C14.1102 19.5866 14.4118 8 14.4118 8Z" fill="white"/>
<g filter="url(#filter1_f_3201_6544)">
<path d="M12.5 8.5H9.50003C9.50003 8.5 10.5726 21.7557 14.5 29C19.6396 38.4801 33 47.5 33 47.5C33 47.5 17.7519 36.1603 14.5 26.5C12.2436 19.7969 12.5 8.5 12.5 8.5Z" fill="white"/>
</g>
<path opacity="0.1" d="M55.5883 8H65C65 8 63.7382 21.5956 59.1177 29.0256C53.0711 38.7488 35 48 35 48C35 48 49.4096 36.3696 53.2353 26.4615C55.8899 19.5866 55.5883 8 55.5883 8Z" fill="black"/>
<path opacity="0.2" d="M23.0002 8.4999L21.0001 8.4999C21.0001 8.4999 19.2892 18.6221 20.5109 24.92C22.5646 35.5064 35.4044 48.1726 35.4044 48.1726C35.4044 48.1726 24.69 33.8281 23.0002 22.9999C22.127 17.405 23.0002 8.4999 23.0002 8.4999Z" fill="white"/>
<rect x="3.00003" y="3" width="65" height="4" rx="1" fill="url(#paint5_linear_3201_6544)"/>
<rect width="72" height="4" rx="1" fill="url(#paint6_linear_3201_6544)"/>
<path d="M83.0718 17.8599C82.8383 17.9593 82.6047 18.0588 82.3712 18.1635C80.1135 19.1319 77.8559 20.1004 75.593 21.0688C74.9442 21.3463 74.2903 21.6237 73.6416 21.9064C71.6486 22.7597 69.775 23.8957 68.0934 25.2672C64.4293 28.2354 61.6578 32.2348 59.8361 36.5797C57.9313 41.0974 57.0594 46.0391 57.0023 50.9442C57.0023 50.7662 57.0023 51.0594 57.0023 50.9442C56.9764 53.415 57.1684 55.8754 57.5213 58.3201C58.2064 63.042 59.6492 67.6853 61.7253 71.9779C63.7961 76.2705 66.5053 80.249 69.8061 83.6778C73.1433 87.1433 77.0877 90.0538 81.5148 91.9332C86.2118 93.9224 91.4381 94.6815 96.4725 93.7601C97.5468 93.5612 98.59 93.2681 99.6332 92.9697C100.77 92.6451 101.906 92.3153 103.043 91.9908C104.88 91.462 106.718 90.9333 108.555 90.4098L83.0718 17.8599Z" fill="#566884"/>
<path d="M78.0945 25.0995C80.0045 24.2986 81.9092 23.5029 83.8191 22.702C84.7689 22.3041 85.7083 21.8853 86.684 21.566C89.2012 20.7232 91.8792 20.4038 94.5313 20.5714C99.519 20.8907 104.263 22.8747 108.295 25.8062C112.022 28.5179 115.177 32.0095 117.663 35.899C120.17 39.8252 121.987 44.1387 123.139 48.6564C124.307 53.2317 124.68 58.0634 124.182 62.7591C123.663 67.6537 122.137 72.496 119.418 76.6106C116.957 80.3378 113.501 83.4002 109.359 85.0753C108.373 85.4732 107.356 85.7663 106.339 86.0647C105.093 86.4312 103.853 86.8028 102.607 87.1693C101.766 87.4205 100.92 87.6666 100.079 87.9179C104.808 86.5201 108.825 83.3688 111.638 79.3222C114.596 75.0715 116.236 69.9675 116.745 64.8217C117.238 59.8538 116.724 54.7917 115.374 49.9965C114.03 45.2171 111.856 40.6785 108.939 36.679C105.96 32.5958 102.171 29.0571 97.7388 26.6438C93.2598 24.2096 88.0853 23.0056 83.0095 23.7385C82.1376 23.8641 81.276 24.0473 80.4301 24.2829C79.6308 24.508 78.8627 24.8064 78.0945 25.0995Z" fill="#161C2A"/>
<path d="M91.6353 21.5031C87.966 21.3827 84.5613 22.1784 81.5459 23.7332C78.5098 25.2984 75.868 27.6279 73.7557 30.5594C71.6278 33.5067 70.0396 37.0611 69.121 41.0396C68.1972 45.0338 67.9533 49.4521 68.5138 54.1058C69.0795 58.7701 70.4029 63.2145 72.3129 67.2558C74.2176 71.2919 76.7036 74.904 79.5841 77.914C82.4542 80.9136 85.7187 83.3059 89.196 84.9182C92.6526 86.5201 96.3115 87.3472 100.002 87.2268C103.666 87.1064 107.013 86.0699 109.93 84.3058C112.826 82.5521 115.297 80.076 117.238 77.066C119.163 74.0716 120.57 70.5485 121.343 66.6643C122.111 62.7957 122.256 58.5659 121.67 54.1425C121.084 49.7243 119.817 45.5207 118.032 41.6888C116.246 37.8516 113.932 34.3809 111.248 31.4389C108.555 28.4917 105.477 26.0679 102.171 24.3561C98.8391 22.6339 95.2787 21.6183 91.6353 21.5031Z" fill="url(#paint7_linear_3201_6544)"/>
<path d="M114.83 39.6733C114.809 39.6733 114.793 39.6733 114.772 39.6786C114.752 39.6838 114.736 39.6838 114.721 39.689C114.705 39.6943 114.684 39.7047 114.669 39.71C114.653 39.7205 114.638 39.7309 114.622 39.7414L113.262 40.8093C113.215 40.8459 113.179 40.8931 113.148 40.9506C113.122 41.0082 113.106 41.071 113.101 41.1391C113.096 41.2072 113.101 41.2804 113.117 41.3485C113.132 41.4218 113.158 41.4898 113.2 41.5579C113.226 41.5998 113.257 41.6416 113.288 41.6783C113.319 41.7149 113.356 41.7411 113.392 41.7673C113.428 41.7935 113.465 41.8092 113.506 41.8196C113.542 41.8301 113.584 41.8406 113.62 41.8406C113.641 41.8406 113.657 41.8406 113.677 41.8353C113.698 41.8301 113.714 41.8301 113.729 41.8249C113.745 41.8196 113.766 41.8144 113.781 41.8039C113.797 41.7935 113.812 41.783 113.828 41.7725L115.188 40.7046C115.234 40.668 115.271 40.6208 115.302 40.5633C115.328 40.5057 115.343 40.4429 115.349 40.3748C115.354 40.3068 115.349 40.2335 115.333 40.1654C115.317 40.0974 115.291 40.0241 115.25 39.956C115.224 39.9089 115.193 39.8723 115.162 39.8356C115.131 39.799 115.094 39.7728 115.058 39.7466C115.022 39.7205 114.985 39.7047 114.949 39.689C114.907 39.6838 114.871 39.6786 114.83 39.6733Z" fill="#161C2A"/>
<path d="M117.186 52.6821C117.03 52.6821 116.89 52.7188 116.765 52.7921C116.641 52.8653 116.532 52.97 116.449 53.0957C116.366 53.2266 116.304 53.3784 116.267 53.5459C116.231 53.7134 116.226 53.9019 116.252 54.1008C116.278 54.2945 116.335 54.4829 116.413 54.6557C116.49 54.8232 116.594 54.9802 116.714 55.1059C116.833 55.2367 116.968 55.3362 117.113 55.4095C117.258 55.4828 117.409 55.5194 117.565 55.5194L119.843 55.5142C119.999 55.5142 120.139 55.4723 120.264 55.4043C120.388 55.331 120.492 55.2263 120.575 55.1006C120.658 54.975 120.72 54.818 120.751 54.6504C120.788 54.4829 120.793 54.2945 120.767 54.1008C120.741 53.9071 120.684 53.7186 120.606 53.5511C120.528 53.3836 120.424 53.2318 120.31 53.1009C120.191 52.9753 120.061 52.8706 119.916 52.7973C119.77 52.724 119.62 52.6874 119.469 52.6874L117.186 52.6821Z" fill="#161C2A"/>
<path d="M116.843 66.3765C116.807 66.3765 116.771 66.3817 116.734 66.3974C116.698 66.4079 116.667 66.4288 116.636 66.455C116.605 66.4812 116.579 66.5073 116.558 66.544C116.537 66.5806 116.516 66.6173 116.501 66.6644C116.48 66.7324 116.47 66.8057 116.475 66.8738C116.475 66.9471 116.49 67.0204 116.516 67.0884C116.542 67.1565 116.573 67.2245 116.615 67.2821C116.656 67.3397 116.708 67.3868 116.765 67.4287L118.421 68.5123C118.442 68.5228 118.457 68.5332 118.478 68.5437C118.499 68.5542 118.514 68.5594 118.535 68.5646C118.556 68.5699 118.572 68.5751 118.592 68.5751C118.613 68.5803 118.629 68.5803 118.649 68.5803C118.686 68.5803 118.722 68.5751 118.758 68.5594C118.795 68.5489 118.826 68.528 118.857 68.5018C118.888 68.4756 118.914 68.4495 118.935 68.4128C118.956 68.3762 118.976 68.3395 118.992 68.2924C119.013 68.2244 119.023 68.1511 119.018 68.083C119.018 68.0097 119.002 67.9365 118.976 67.8684C118.95 67.8003 118.919 67.7323 118.878 67.6747C118.836 67.6171 118.784 67.57 118.727 67.5281L117.077 66.4445C117.056 66.434 117.04 66.4236 117.02 66.4131C116.999 66.4026 116.983 66.3974 116.963 66.3922C116.942 66.3869 116.926 66.3817 116.906 66.3817C116.885 66.3765 116.864 66.3765 116.843 66.3765Z" fill="#161C2A"/>
<path d="M105.404 29.3713C105.368 29.3713 105.327 29.3766 105.295 29.387C105.259 29.3975 105.228 29.4132 105.197 29.4394C105.166 29.4603 105.14 29.4917 105.114 29.5231C105.088 29.5546 105.072 29.5964 105.057 29.6383L104.418 31.5124C104.398 31.5752 104.387 31.6485 104.387 31.7166C104.387 31.7898 104.403 31.8579 104.429 31.9312C104.455 31.9992 104.486 32.0673 104.527 32.1249C104.569 32.1825 104.621 32.2348 104.678 32.2767C104.699 32.2872 104.714 32.3029 104.735 32.3133C104.756 32.3238 104.776 32.329 104.792 32.3395C104.813 32.3447 104.834 32.35 104.849 32.3552C104.865 32.3604 104.885 32.3604 104.906 32.3604C104.943 32.3604 104.984 32.3552 105.02 32.3447C105.057 32.3343 105.088 32.3186 105.119 32.2924C105.15 32.2715 105.176 32.24 105.202 32.2086C105.228 32.1772 105.244 32.1353 105.259 32.0935L105.898 30.2194C105.918 30.1566 105.929 30.0833 105.929 30.01C105.929 29.9367 105.913 29.8686 105.887 29.8006C105.861 29.7325 105.83 29.6645 105.789 29.6069C105.747 29.5493 105.695 29.497 105.638 29.4603C105.617 29.4446 105.602 29.4342 105.581 29.4237C105.56 29.4132 105.539 29.408 105.524 29.3975C105.503 29.3923 105.482 29.387 105.467 29.3818C105.441 29.3713 105.42 29.3713 105.404 29.3713Z" fill="#161C2A"/>
<path d="M110.569 76.04C110.548 76.04 110.532 76.04 110.511 76.0452C110.491 76.0504 110.475 76.0557 110.454 76.0609C110.439 76.0661 110.418 76.0766 110.402 76.0871C110.387 76.0976 110.366 76.108 110.351 76.1237C110.304 76.1656 110.262 76.218 110.236 76.2755C110.21 76.3331 110.19 76.4012 110.184 76.4745C110.179 76.5425 110.184 76.621 110.2 76.6943C110.216 76.7676 110.247 76.8409 110.283 76.909L111.425 78.8302C111.451 78.8773 111.482 78.9139 111.513 78.9506C111.544 78.9872 111.581 79.0134 111.617 79.0396C111.653 79.0605 111.695 79.0814 111.731 79.0919C111.773 79.1024 111.809 79.1076 111.85 79.1076C111.871 79.1076 111.887 79.1024 111.908 79.1024C111.928 79.0971 111.944 79.0919 111.965 79.0867C111.98 79.0814 112.001 79.071 112.017 79.0605C112.032 79.05 112.053 79.0396 112.068 79.0238C112.115 78.982 112.157 78.9296 112.183 78.872C112.209 78.8144 112.229 78.7464 112.235 78.6731C112.24 78.6051 112.235 78.5265 112.219 78.4532C112.203 78.38 112.172 78.3067 112.136 78.2386L110.994 76.3227C110.968 76.2755 110.937 76.2389 110.906 76.2023C110.875 76.1656 110.838 76.1394 110.802 76.1133C110.766 76.0923 110.724 76.0714 110.688 76.0609C110.652 76.04 110.61 76.0347 110.569 76.04Z" fill="#161C2A"/>
<path d="M93.4622 24.4294C93.3013 24.4242 93.1508 24.4609 93.0211 24.5237C92.8913 24.5917 92.7771 24.6912 92.6889 24.8168C92.6007 24.9425 92.5332 25.0943 92.4969 25.2618C92.4605 25.4293 92.4502 25.6178 92.4761 25.8167L92.8446 28.7377C92.8706 28.9367 92.9276 29.1251 93.0055 29.2979C93.0885 29.4706 93.1923 29.6277 93.3169 29.7638C93.4415 29.8946 93.5816 30.0046 93.7269 30.0831C93.8774 30.1616 94.0383 30.2035 94.1992 30.2087C94.3601 30.214 94.5106 30.1773 94.6404 30.1093C94.7701 30.0412 94.8843 29.9365 94.9725 29.8109C95.0607 29.6853 95.1282 29.5334 95.1645 29.3607C95.2009 29.1932 95.2113 29.0047 95.1853 28.8058L94.8168 25.89C94.7909 25.6911 94.7338 25.5026 94.6559 25.3298C94.5729 25.1571 94.4691 25.0001 94.3497 24.8692C94.2252 24.7383 94.0902 24.6284 93.9397 24.5499C93.784 24.4818 93.6231 24.4347 93.4622 24.4294Z" fill="#161C2A"/>
<path d="M100.297 78.2859C100.137 78.2911 99.9861 78.3382 99.8511 78.4168C99.7214 78.4953 99.6072 78.6052 99.5138 78.7413C99.4256 78.8774 99.3581 79.0397 99.3218 79.2177C99.2854 79.3957 99.2751 79.5894 99.301 79.7935L99.6799 82.7983C99.7058 83.0025 99.7629 83.1962 99.846 83.3689C99.929 83.5417 100.033 83.6987 100.157 83.8296C100.282 83.9605 100.422 84.0652 100.573 84.1332C100.723 84.2013 100.884 84.2379 101.045 84.2327C101.206 84.2275 101.356 84.1803 101.491 84.1018C101.621 84.0233 101.735 83.9081 101.823 83.772C101.912 83.6359 101.979 83.4736 102.015 83.2956C102.052 83.1177 102.062 82.924 102.036 82.7198L101.657 79.7255C101.631 79.5213 101.574 79.3276 101.491 79.1549C101.408 78.9821 101.304 78.8251 101.18 78.6942C101.055 78.5633 100.915 78.4586 100.765 78.3906C100.619 78.3225 100.458 78.2859 100.297 78.2859Z" fill="#161C2A"/>
<path d="M82.4542 28.7012C82.4334 28.7012 82.4126 28.7012 82.3971 28.7064C82.3763 28.7064 82.3556 28.7116 82.34 28.7169C82.3192 28.7221 82.3037 28.7326 82.2829 28.7378C82.2673 28.7483 82.2466 28.7588 82.231 28.7692C82.1791 28.8059 82.1376 28.8582 82.1064 28.9158C82.0753 28.9734 82.0597 29.0414 82.0493 29.1095C82.0442 29.1775 82.0493 29.2508 82.0649 29.3241C82.0805 29.3974 82.1116 29.4707 82.1531 29.5387L83.3261 31.5123C83.352 31.5594 83.3832 31.6013 83.4195 31.6327C83.4558 31.6693 83.4922 31.7007 83.5285 31.7217C83.5648 31.7479 83.6063 31.7636 83.6479 31.7793C83.6894 31.795 83.7309 31.8002 83.7724 31.8002C83.7932 31.8002 83.8139 31.8002 83.8295 31.795C83.8503 31.795 83.8658 31.7897 83.8866 31.7845C83.9074 31.7793 83.9229 31.774 83.9437 31.7636C83.9593 31.7531 83.98 31.7426 83.9956 31.7322C84.0475 31.6955 84.089 31.6432 84.115 31.5856C84.1461 31.528 84.1617 31.4599 84.1721 31.3919C84.1772 31.3238 84.1721 31.2506 84.1565 31.1773C84.1409 31.104 84.1098 31.0307 84.0683 30.9626L82.8953 28.9891C82.8694 28.942 82.8382 28.9001 82.8019 28.8635C82.7656 28.8268 82.7292 28.7954 82.6929 28.7692C82.6566 28.7431 82.6151 28.7221 82.5735 28.7116C82.532 28.7012 82.4957 28.7012 82.4542 28.7012Z" fill="#161C2A"/>
<path d="M89.3206 76.5845C89.2791 76.5845 89.2375 76.5949 89.2012 76.6054C89.1649 76.6211 89.1285 76.6368 89.0974 76.663C89.0663 76.6892 89.0351 76.7206 89.0092 76.7572C88.9832 76.7939 88.9625 76.8357 88.9469 76.8829L88.2566 78.9035C88.2307 78.9768 88.2203 79.0501 88.2255 79.1234C88.2255 79.1967 88.2411 79.2752 88.267 79.3485C88.293 79.4218 88.3293 79.4898 88.3708 79.5474C88.4175 79.605 88.4694 79.6573 88.5317 79.694C88.5525 79.7045 88.5732 79.7202 88.594 79.7254C88.6147 79.7306 88.6355 79.7411 88.6563 79.7463C88.677 79.7516 88.6978 79.7568 88.7185 79.7568C88.7393 79.762 88.7601 79.762 88.7808 79.762C88.8223 79.762 88.8639 79.7516 88.9002 79.7411C88.9365 79.7306 88.9728 79.7097 89.004 79.6835C89.0351 79.6573 89.0663 79.6259 89.0922 79.5893C89.1182 79.5526 89.1389 79.5108 89.1545 79.4636L89.8396 77.443C89.8655 77.3749 89.8759 77.2964 89.8707 77.2231C89.8707 77.1498 89.8551 77.0713 89.8292 77.0033C89.8032 76.93 89.7669 76.8619 89.7254 76.8043C89.6787 76.7468 89.6268 76.6944 89.5645 76.6578C89.5437 76.6473 89.523 76.6316 89.5022 76.6264C89.4815 76.6159 89.4607 76.6106 89.4399 76.6054C89.4192 76.6002 89.3984 76.5949 89.3777 76.5949C89.3621 76.5845 89.3413 76.5845 89.3206 76.5845Z" fill="#161C2A"/>
<path d="M75.0221 38.9878C74.9806 38.9878 74.939 38.993 74.9027 39.0035C74.8664 39.014 74.83 39.0349 74.7937 39.0558C74.7626 39.082 74.7314 39.1082 74.7055 39.1448C74.6795 39.1815 74.6588 39.2234 74.6432 39.2652C74.6173 39.3333 74.6069 39.4066 74.6069 39.4799C74.6069 39.5532 74.6224 39.6317 74.6484 39.6997C74.6743 39.773 74.7107 39.8411 74.7522 39.8987C74.7989 39.9615 74.8508 40.0138 74.9131 40.0505L76.6985 41.2178C76.7192 41.2335 76.74 41.244 76.7607 41.2545C76.7815 41.265 76.8023 41.2702 76.823 41.2807C76.8438 41.2859 76.8645 41.2911 76.8853 41.2964C76.9061 41.3016 76.9268 41.3016 76.9476 41.3016C76.9891 41.3016 77.0306 41.2964 77.0669 41.2859C77.1033 41.2754 77.1396 41.2545 77.1759 41.2336C77.2071 41.2074 77.2382 41.1812 77.2642 41.1446C77.2901 41.1079 77.3109 41.0713 77.3264 41.0242C77.3524 40.9561 77.3628 40.8828 77.3628 40.8095C77.3628 40.7362 77.3472 40.6629 77.3213 40.5897C77.2953 40.5164 77.259 40.4483 77.2175 40.3907C77.1707 40.3279 77.1188 40.2756 77.0566 40.2389L75.2712 39.0716C75.2504 39.0558 75.2297 39.0454 75.2089 39.0349C75.1882 39.0244 75.1674 39.014 75.1466 39.0087C75.1259 39.0035 75.1051 38.9983 75.0844 38.993C75.0636 38.993 75.0428 38.9878 75.0221 38.9878Z" fill="#161C2A"/>
<path d="M73.3872 52.6035C73.2159 52.6035 73.0551 52.6454 72.9201 52.7187C72.78 52.792 72.6606 52.9019 72.562 53.038C72.4634 53.1741 72.3959 53.3364 72.3544 53.5144C72.3129 53.6924 72.3025 53.8913 72.3284 54.0955C72.3544 54.2996 72.4115 54.4985 72.4945 54.6765C72.5776 54.8545 72.6918 55.0168 72.8163 55.1529C72.9461 55.289 73.0914 55.3989 73.2523 55.4722C73.408 55.5455 73.5792 55.5874 73.7505 55.5874L76.2729 55.5822C76.4441 55.5822 76.5998 55.5403 76.74 55.4617C76.8801 55.3885 76.9995 55.2785 77.0929 55.1424C77.1863 55.0063 77.259 54.8493 77.3005 54.6713C77.342 54.4933 77.3524 54.2996 77.3264 54.0955C77.3005 53.8913 77.2434 53.6924 77.1604 53.5144C77.0773 53.3364 76.9683 53.1741 76.8386 53.0432C76.7088 52.9071 76.5635 52.7972 76.4078 52.7239C76.2521 52.6506 76.086 52.6087 75.9148 52.6087L73.3872 52.6035Z" fill="#161C2A"/>
<path d="M80.072 66.9104C80.0512 66.9104 80.0304 66.9104 80.0097 66.9156C79.9889 66.9209 79.9682 66.9261 79.9526 66.9313C79.9318 66.9366 79.9163 66.947 79.8955 66.9575C79.8747 66.968 79.8592 66.9785 79.8436 66.9942L78.3333 68.1772C78.2814 68.2191 78.2399 68.2715 78.2087 68.3343C78.1776 68.3971 78.1568 68.4652 78.1517 68.5384C78.1465 68.6117 78.1465 68.685 78.1672 68.7635C78.1828 68.8368 78.2139 68.9154 78.2555 68.9834C78.2814 69.0305 78.3177 69.0724 78.3489 69.109C78.3852 69.1457 78.4215 69.1771 78.4579 69.198C78.4994 69.2242 78.5357 69.2399 78.5772 69.2504C78.6188 69.2609 78.6603 69.2661 78.7018 69.2661C78.7226 69.2661 78.7433 69.2661 78.7641 69.2609C78.7848 69.2556 78.8056 69.2504 78.8212 69.2451C78.8419 69.2399 78.8575 69.2294 78.8783 69.219C78.899 69.2085 78.9146 69.198 78.9354 69.1823L80.4405 67.9993C80.4924 67.9574 80.5339 67.905 80.565 67.8422C80.5962 67.7794 80.6117 67.7113 80.6221 67.638C80.6273 67.5648 80.6221 67.4915 80.6065 67.4129C80.591 67.3344 80.5598 67.2611 80.5183 67.1931C80.4924 67.146 80.456 67.1041 80.4249 67.0674C80.3886 67.0308 80.3522 66.9994 80.3159 66.9785C80.2744 66.9523 80.238 66.9366 80.1965 66.9261C80.155 66.9156 80.1135 66.9104 80.072 66.9104Z" fill="#161C2A"/>
<path d="M110.47 41.8459C110.418 41.8459 110.371 41.8512 110.325 41.8564C110.278 41.8617 110.226 41.8774 110.179 41.8931C110.133 41.9088 110.086 41.9297 110.039 41.9506C109.992 41.9768 109.951 42.003 109.909 42.0344L96.2441 52.7031C96.2026 52.7397 96.161 52.7763 96.1195 52.8182C96.0832 52.8601 96.0469 52.902 96.0157 52.9491C95.9846 52.9962 95.9534 53.0433 95.9275 53.0957C95.9015 53.148 95.8808 53.2004 95.86 53.2579C95.8237 53.3679 95.7977 53.4883 95.7874 53.6139C95.777 53.7396 95.777 53.8652 95.7925 53.9961C95.8081 54.1269 95.8341 54.2526 95.8808 54.3834C95.9223 54.5091 95.9794 54.6347 96.052 54.7551C96.1247 54.8755 96.2026 54.9802 96.2908 55.0744C96.379 55.1687 96.4724 55.242 96.5762 55.3048C96.6748 55.3676 96.7787 55.4147 96.8825 55.4461C96.9863 55.4775 97.0952 55.4932 97.199 55.4932C97.2509 55.4932 97.3028 55.488 97.3496 55.4775C97.4015 55.4671 97.4482 55.4566 97.5001 55.4409C97.5468 55.4252 97.5987 55.4042 97.6454 55.3781C97.6921 55.3519 97.7388 55.3205 97.7803 55.2891L111.404 44.5785C111.534 44.4791 111.632 44.3482 111.705 44.1964C111.778 44.0446 111.825 43.8771 111.84 43.6939C111.856 43.5159 111.84 43.3222 111.799 43.1337C111.757 42.9453 111.684 42.7568 111.581 42.5841C111.513 42.4689 111.435 42.3642 111.347 42.27C111.264 42.181 111.171 42.1025 111.072 42.0396C110.973 41.9768 110.875 41.9297 110.776 41.8983C110.672 41.8669 110.574 41.8459 110.47 41.8459Z" fill="#161C2A"/>
<path d="M85.2516 42.2751C85.1634 42.2751 85.0751 42.2856 84.9869 42.3118C84.9039 42.3327 84.8208 42.3694 84.7482 42.4165C84.6703 42.4636 84.6028 42.5212 84.5406 42.5945C84.4783 42.6625 84.4212 42.7463 84.3745 42.8405C84.2914 43.0028 84.2447 43.1808 84.224 43.364C84.2084 43.5472 84.2188 43.7409 84.2603 43.9294C84.3018 44.1178 84.3745 44.301 84.4731 44.4686C84.5717 44.6361 84.6963 44.7931 84.8416 44.9188L96.2025 54.6765C96.2648 54.7289 96.3271 54.776 96.3894 54.8126C96.4517 54.8493 96.5191 54.8807 96.5814 54.9069C96.6437 54.933 96.7112 54.9487 96.7735 54.9645C96.8357 54.9749 96.9032 54.9802 96.9655 54.9802C97.0537 54.9802 97.1419 54.9645 97.2198 54.9435C97.3028 54.9173 97.3807 54.8807 97.4533 54.8336C97.526 54.7865 97.5935 54.7236 97.6558 54.6556C97.718 54.5823 97.7699 54.5038 97.8166 54.4096C97.8582 54.3206 97.8945 54.2263 97.9204 54.1321C97.9464 54.0326 97.962 53.9332 97.9672 53.8337C97.9723 53.729 97.9672 53.6296 97.9568 53.5249C97.9464 53.4202 97.9256 53.3207 97.8945 53.216C97.8685 53.1322 97.8426 53.0537 97.8063 52.97C97.7699 52.8914 97.7336 52.8129 97.6869 52.7396C97.6402 52.6663 97.5935 52.5983 97.5364 52.5302C97.4793 52.4622 97.4222 52.4046 97.3547 52.347L86.0301 42.5945C85.9678 42.5421 85.9055 42.495 85.8381 42.4531C85.7758 42.4113 85.7083 42.3798 85.6409 42.3537C85.5734 42.3275 85.5059 42.3066 85.4436 42.2961C85.3813 42.2856 85.3139 42.2751 85.2516 42.2751Z" fill="#161C2A"/>
<path d="M96.5503 49.7139C96.0728 49.7139 95.6317 49.829 95.2476 50.0437C94.8583 50.2583 94.5262 50.5672 94.2615 50.9545C93.9968 51.3419 93.7996 51.7973 93.6906 52.3104C93.5816 52.8234 93.5556 53.3835 93.6283 53.975C93.701 54.5666 93.8722 55.1267 94.111 55.6397C94.3497 56.1527 94.6611 56.6134 95.0244 57.0008C95.3877 57.3882 95.7977 57.697 96.2441 57.9117C96.6852 58.1263 97.1575 58.2467 97.635 58.2415C98.1125 58.2415 98.5485 58.1211 98.9325 57.9012C99.3166 57.6866 99.6487 57.3725 99.9082 56.9851C100.168 56.5977 100.365 56.1423 100.474 55.6293C100.583 55.1215 100.609 54.5613 100.531 53.975C100.458 53.3887 100.287 52.8286 100.048 52.3208C99.8096 51.813 99.4982 51.3524 99.1401 50.9702C98.782 50.5829 98.372 50.274 97.9308 50.0541C97.4949 49.8395 97.0278 49.7139 96.5503 49.7139Z" fill="#161C2A"/>
<path d="M97.2717 53.3992C97.2613 53.3992 97.251 53.3992 97.2354 53.3992C97.225 53.3992 97.2146 53.4044 97.1991 53.4044C97.1887 53.4044 97.1783 53.4096 97.1627 53.4149C97.1523 53.4201 97.142 53.4201 97.1316 53.4253C97.0797 53.4463 97.0382 53.4829 97.0018 53.53C96.9655 53.5772 96.9395 53.6295 96.924 53.6871C96.9084 53.7447 96.9032 53.8127 96.9084 53.8755C96.9136 53.9436 96.9292 54.0116 96.9551 54.0797L107.361 79.1599C107.382 79.2123 107.413 79.2594 107.444 79.3013C107.475 79.3432 107.512 79.3798 107.548 79.406C107.584 79.4374 107.626 79.4583 107.667 79.474C107.709 79.4897 107.75 79.495 107.797 79.495C107.807 79.495 107.818 79.495 107.833 79.495C107.844 79.495 107.854 79.4897 107.87 79.4897C107.88 79.4897 107.891 79.4845 107.901 79.4793C107.911 79.474 107.922 79.4688 107.932 79.4636C107.937 79.4583 107.948 79.4583 107.953 79.4531C107.958 79.4478 107.968 79.4426 107.974 79.4374C107.979 79.4321 107.989 79.4269 107.994 79.4217C107.999 79.4164 108.01 79.4112 108.015 79.406C108.051 79.3746 108.077 79.3327 108.098 79.2908C108.119 79.2437 108.134 79.1966 108.14 79.1442C108.145 79.0919 108.15 79.0343 108.14 78.9767C108.134 78.9191 108.119 78.8615 108.093 78.804L97.7077 53.7447C97.6869 53.6923 97.661 53.6452 97.6246 53.6033C97.5935 53.5615 97.5572 53.5248 97.5208 53.4934C97.4845 53.462 97.443 53.441 97.3963 53.4253C97.3548 53.4096 97.3132 53.3992 97.2717 53.3992Z" fill="#363840"/>
<path d="M97.0797 51.6194C96.8202 51.6194 96.5814 51.6822 96.3738 51.7974C96.1662 51.9125 95.9846 52.0853 95.8393 52.2947C95.6939 52.5041 95.5901 52.7553 95.5279 53.0328C95.4656 53.3102 95.4552 53.6139 95.4967 53.9384C95.5382 54.2578 95.6265 54.5666 95.7614 54.8441C95.8912 55.1215 96.0624 55.3728 96.2596 55.5822C96.4569 55.7916 96.68 55.9591 96.9188 56.0795C97.1575 56.1947 97.4118 56.2627 97.6713 56.2627C97.9308 56.2627 98.1696 56.1947 98.3772 56.0795C98.5848 55.9643 98.7664 55.7916 98.9066 55.5822C99.0467 55.3728 99.1557 55.1215 99.2128 54.8441C99.2699 54.5666 99.2854 54.263 99.2439 53.9437C99.2024 53.6243 99.1142 53.3207 98.9844 53.0433C98.8547 52.7658 98.6886 52.5145 98.4914 52.3052C98.2941 52.0958 98.071 51.9282 97.8322 51.8078C97.5935 51.6874 97.3392 51.6194 97.0797 51.6194Z" fill="#363840"/>
<path d="M76.9943 21.6708C78.5202 20.3568 80.1602 19.2627 81.8989 18.399C83.6324 17.5352 85.4592 16.9018 87.364 16.5039C89.2583 16.1061 91.2306 15.9438 93.2495 16.0171C95.2632 16.0956 97.2717 16.4097 99.2491 16.9541C101.221 17.4933 103.162 18.2576 105.052 19.2313C106.936 20.1998 108.773 21.3828 110.537 22.7648C112.297 24.1416 113.989 25.7121 115.587 27.4762C117.186 29.2351 118.644 31.1249 119.952 33.1246C121.26 35.1191 122.423 37.2288 123.424 39.4222C124.426 41.6103 125.272 43.8875 125.952 46.2275C126.627 48.5675 127.135 50.965 127.467 53.4045C127.794 55.8439 127.934 58.252 127.888 60.6024C127.841 62.9581 127.607 65.251 127.187 67.4653C126.767 69.6849 126.17 71.8207 125.386 73.8466C124.602 75.883 123.637 77.8042 122.5 79.5997C121.353 81.3953 120.066 83.0076 118.649 84.4158C117.227 85.8292 115.681 87.0385 114.025 88.0331C112.364 89.033 110.595 89.813 108.731 90.3626C106.863 90.9175 104.906 91.2368 102.877 91.3101C100.842 91.3834 98.7924 91.2054 96.7631 90.7866C94.7234 90.3679 92.6993 89.703 90.7167 88.8079C88.729 87.9075 86.7827 86.7767 84.8987 85.4209C83.0147 84.0598 81.1982 82.4737 79.4751 80.6781C77.7469 78.8773 76.1691 76.9143 74.747 74.8255C73.325 72.7316 72.069 70.5068 70.9895 68.1877C69.9099 65.8635 69.0069 63.4397 68.2906 60.9532C67.59 58.4404 67.071 55.8806 66.7544 53.2893C66.443 50.6981 66.3444 48.1539 66.4534 45.6778C66.5624 43.207 66.879 40.8146 67.3928 38.5165C67.9066 36.2289 68.6176 34.046 69.5259 31.9939C70.4289 29.9471 71.5188 28.0311 72.7904 26.2774C74.0568 24.529 75.4633 22.9899 76.9943 21.6708ZM102.254 86.3789C105.898 86.2637 109.224 85.2324 112.12 83.4683C115.001 81.7199 117.456 79.249 119.386 76.2442C121.302 73.2603 122.698 69.7425 123.466 65.8687C124.229 62.0106 124.369 57.7965 123.782 53.3835C123.196 48.981 121.93 44.7879 120.149 40.9612C118.364 37.1345 116.06 33.6638 113.382 30.7271C110.693 27.7798 107.626 25.3613 104.335 23.6443C101.024 21.9168 97.4845 20.9012 93.8619 20.7808C90.2185 20.6552 86.8346 21.4509 83.8348 23.0004C80.8142 24.5604 78.188 26.8899 76.0861 29.811C73.9737 32.753 72.3908 36.297 71.4773 40.265C70.5587 44.2487 70.3199 48.6565 70.8857 53.2946C71.4514 57.9431 72.7748 62.377 74.6796 66.4026C76.5843 70.4283 79.0599 74.0351 81.93 77.0451C84.7949 80.0447 88.0439 82.437 91.5004 84.0494C94.9466 85.6617 98.5848 86.494 102.254 86.3789Z" fill="#313F54"/>
<defs>
<filter id="filter0_f_3201_6544" x="5.99988" y="50" width="32" height="50" filterUnits="userSpaceOnUse" color-interpolation-filters="sRGB">
<feFlood flood-opacity="0" result="BackgroundImageFix"/>
<feBlend mode="normal" in="SourceGraphic" in2="BackgroundImageFix" result="shape"/>
<feGaussianBlur stdDeviation="2" result="effect1_foregroundBlur_3201_6544"/>
</filter>
<filter id="filter1_f_3201_6544" x="5.50003" y="4.5" width="31.5" height="47" filterUnits="userSpaceOnUse" color-interpolation-filters="sRGB">
<feFlood flood-opacity="0" result="BackgroundImageFix"/>
<feBlend mode="normal" in="SourceGraphic" in2="BackgroundImageFix" result="shape"/>
<feGaussianBlur stdDeviation="2" result="effect1_foregroundBlur_3201_6544"/>
</filter>
<linearGradient id="paint0_linear_3201_6544" x1="3.00003" y1="99" x2="68" y2="99" gradientUnits="userSpaceOnUse">
<stop offset="0.135417" stop-color="#775E38"/>
<stop offset="0.234375" stop-color="#BF9048"/>
<stop offset="0.296875" stop-color="#694E24"/>
</linearGradient>
<linearGradient id="paint1_linear_3201_6544" x1="4.3586e-07" y1="102" x2="72" y2="102" gradientUnits="userSpaceOnUse">
<stop offset="0.135417" stop-color="#C19552"/>
<stop offset="0.234375" stop-color="#E7D6BC"/>
<stop offset="0.296875" stop-color="#C19552"/>
</linearGradient>
<radialGradient id="paint2_radial_3201_6544" cx="0" cy="0" r="1" gradientUnits="userSpaceOnUse" gradientTransform="translate(35.6409 52.0001) rotate(90) scale(45.0001 31.6552)">
<stop stop-color="#D9D9D9" stop-opacity="0"/>
<stop offset="1" stop-color="#6E83BB" stop-opacity="0.37"/>
</radialGradient>
<linearGradient id="paint3_linear_3201_6544" x1="35.7959" y1="74.3755" x2="35.7959" y2="96.069" gradientUnits="userSpaceOnUse">
<stop stop-color="#C19552"/>
<stop offset="1" stop-color="#967440"/>
</linearGradient>
<linearGradient id="paint4_linear_3201_6544" x1="36.7111" y1="18.2688" x2="36.7111" y2="47.9689" gradientUnits="userSpaceOnUse">
<stop stop-color="#C19552"/>
<stop offset="1" stop-color="#967440"/>
</linearGradient>
<linearGradient id="paint5_linear_3201_6544" x1="3.00003" y1="4.99998" x2="68" y2="4.99999" gradientUnits="userSpaceOnUse">
<stop offset="0.135417" stop-color="#775E38"/>
<stop offset="0.234375" stop-color="#BF9048"/>
<stop offset="0.296875" stop-color="#694E24"/>
</linearGradient>
<linearGradient id="paint6_linear_3201_6544" x1="4.3586e-07" y1="1.99998" x2="72" y2="1.99999" gradientUnits="userSpaceOnUse">
<stop offset="0.135417" stop-color="#C19552"/>
<stop offset="0.234375" stop-color="#E7D6BC"/>
<stop offset="0.296875" stop-color="#C19552"/>
</linearGradient>
<linearGradient id="paint7_linear_3201_6544" x1="118.726" y1="35.353" x2="76.7213" y2="68.6067" gradientUnits="userSpaceOnUse">
<stop stop-color="#CDD4DF"/>
<stop offset="0.5325" stop-color="white"/>
</linearGradient>
</defs>
</svg>
