<svg width="20" height="20" viewBox="0 0 20 20" fill="none" xmlns="http://www.w3.org/2000/svg">
<path d="M6.207 9.75697C6.29997 9.84984 6.37373 9.96013 6.42406 10.0815C6.47438 10.2029 6.50028 10.3331 6.50028 10.4645C6.50028 10.5959 6.47438 10.726 6.42406 10.8474C6.37373 10.9688 6.29997 11.0791 6.207 11.172L4.38 13H14C14.2652 13 14.5196 13.1053 14.7071 13.2929C14.8946 13.4804 15 13.7348 15 14C15 14.2652 14.8946 14.5195 14.7071 14.7071C14.5196 14.8946 14.2652 15 14 15H4.38L6.208 16.828C6.30091 16.9208 6.37462 17.0311 6.42493 17.1524C6.47524 17.2737 6.50115 17.4038 6.5012 17.5351C6.50125 17.6665 6.47542 17.7965 6.4252 17.9179C6.37498 18.0393 6.30134 18.1496 6.2085 18.2425C6.11565 18.3354 6.00542 18.4091 5.88408 18.4594C5.76275 18.5097 5.6327 18.5356 5.50135 18.5357C5.37 18.5357 5.23993 18.5099 5.11856 18.4597C4.99719 18.4095 4.88691 18.3358 4.794 18.243L1.258 14.707C1.07053 14.5194 0.96521 14.2651 0.96521 14C0.96521 13.7348 1.07053 13.4805 1.258 13.293L4.794 9.75697C4.98152 9.5695 5.23583 9.46419 5.501 9.46419C5.76616 9.46419 6.02047 9.5695 6.208 9.75697H6.207ZM13.793 1.75697C13.9652 1.5848 14.1943 1.48136 14.4373 1.46608C14.6803 1.4508 14.9206 1.52472 15.113 1.67397L15.207 1.75697L18.743 5.29297C18.9152 5.46517 19.0186 5.69427 19.0339 5.93729C19.0492 6.18032 18.9752 6.42057 18.826 6.61297L18.743 6.70697L15.207 10.242C15.027 10.4213 14.7856 10.5254 14.5316 10.5332C14.2777 10.541 14.0303 10.4518 13.8397 10.2837C13.6492 10.1157 13.5297 9.88142 13.5056 9.6285C13.4815 9.37558 13.5546 9.12296 13.71 8.92197L13.793 8.82797L15.62 6.99997H6C5.74512 6.99969 5.49996 6.90209 5.31463 6.72712C5.12929 6.55216 5.01776 6.31302 5.00282 6.05858C4.98789 5.80414 5.07067 5.55359 5.23426 5.35814C5.39785 5.16269 5.6299 5.03708 5.883 5.00697L6 4.99997H15.621L13.793 3.16997C13.6055 2.98245 13.5002 2.72814 13.5002 2.46297C13.5002 2.19781 13.6055 1.9435 13.793 1.75597V1.75697Z" fill="#212058" stroke="#DDF4E3"/>
</svg>
